<svg width="200" height="200" viewBox="0 0 200 200" fill="none" xmlns="http://www.w3.org/2000/svg">
<g clip-path="url(#clip0_77_2240)">
<rect x="-18" y="-10" width="236" height="236" fill="white"/>
<path d="M63.1979 87.67V87.095H63.1869C62.9019 75.536 49.4729 71.799 39.4609 74.465C37.9239 74.807 38.4829 77.219 40.0199 76.835C48.2989 74.687 59.7279 77.028 60.6939 86.302C60.7379 86.726 60.4039 87.094 59.9779 87.094H59.9579C59.6049 87.094 59.3089 86.837 59.2479 86.489C57.9019 78.765 49.3829 76.519 40.2639 78.21C39.6059 78.348 39.1829 78.993 39.3209 79.652C39.4589 80.31 40.1049 80.733 40.7619 80.595C48.1549 79.289 55.1269 80.545 56.6929 86.184C56.8199 86.642 56.4739 87.095 55.9989 87.095H46.4089C32.7629 87.303 32.6109 107.648 46.3149 107.904C60.4399 108.848 64.2179 100.366 63.1999 87.725C63.1989 87.707 63.1979 87.689 63.1979 87.671V87.67ZM51.3379 96.723C49.3139 96.723 47.6729 95.082 47.6729 93.058C47.6729 91.034 49.3139 89.393 51.3379 89.393C53.3619 89.393 55.0029 91.034 55.0029 93.058C55.0029 95.082 53.3619 96.723 51.3379 96.723Z" fill="#328E6E"/>
<path d="M111.734 83.262C113.515 83.262 114.565 82.075 114.565 80.431C114.565 78.696 113.378 77.782 111.825 77.782C110.181 77.782 108.994 78.924 108.994 80.476C108.994 82.211 110.136 83.262 111.734 83.262Z" fill="#328E6E"/>
<path d="M162.607 87.098H159.593C158.999 87.098 158.68 87.509 158.68 88.194V89.884C158.68 96.095 155.986 103.721 152.012 103.721C149.683 103.721 149.044 101.849 149.044 99.246C149.044 95.684 149.227 90.934 149.227 88.194C149.227 87.509 148.953 87.098 148.268 87.098H145.345C144.751 87.098 144.34 87.463 144.34 88.194V98.048C143.416 100.057 141.955 101.711 139.956 101.711C137.353 101.711 135.755 98.332 134.978 96.962C134.75 96.688 134.567 96.551 134.202 96.551C133.152 96.551 130.685 98.104 130.685 99.2C130.685 99.794 131.735 102.031 133.151 103.265C133.608 104.544 133.882 106.507 133.882 108.608C133.882 112.079 132.786 115.275 130.594 115.275C128.174 115.275 127.763 111.622 127.763 106.963V93.856C134.522 91.801 139.591 87.052 139.591 81.754C139.591 77.964 136.897 75.269 132.969 75.269C126.256 75.269 123.15 82.393 123.15 90.431V98.008C122.187 100.298 120.046 103.721 117.305 103.721C115.022 103.721 114.017 101.849 114.017 99.017C114.017 96.642 114.2 90.294 114.2 88.194C114.2 87.463 113.88 87.098 113.195 87.098H110.272C109.633 87.098 109.313 87.509 109.313 88.148V98.077C108.365 100.334 106.219 103.721 102.874 103.721C99.5289 103.721 98.764 101.392 98.764 97.602V91.026C100.362 91.072 102.189 91.117 103.331 91.117C103.788 91.117 104.016 90.889 104.016 90.341V88.012C104.016 87.51 103.742 87.281 103.377 87.281C102.235 87.281 100.317 87.327 98.8099 87.372V81.892C98.8099 81.207 98.49 80.796 97.851 80.796H95.02C94.381 80.796 94.0609 81.207 94.0609 81.892V87.326C93.4669 87.28 92.9649 87.28 92.5539 87.28C92.0059 87.28 91.778 87.645 91.778 88.102V90.294C91.778 90.888 92.0519 91.116 92.6909 91.116C93.0109 91.116 93.513 91.116 94.0609 91.07V97.739C93.01 100.388 90.864 103.72 88.307 103.72C86.526 103.72 85.658 102.304 85.658 99.975C85.658 97.235 85.978 93.992 85.978 92.668C85.978 88.969 83.649 86.548 79.676 86.548C75.338 86.548 72.734 89.608 71.364 92.85L71.181 92.804C71.272 91.571 71.501 88.922 71.501 88.192C71.501 87.416 71.181 87.096 70.496 87.096H67.802C67.071 87.096 66.752 87.416 66.752 88.283V106.276C66.752 107.052 67.026 107.418 67.757 107.418H70.4969C71.2279 107.418 71.502 107.007 71.502 106.276V104.632C71.502 99.289 73.922 90.795 78.17 90.795C80.179 90.795 81.001 92.165 81.001 94.357C81.001 96.869 80.727 99.106 80.727 101.71C80.727 105.409 83.695 107.921 87.212 107.921C90.729 107.921 93.1589 105.855 94.823 103.55C96.0339 106.305 98.6049 107.921 101.916 107.921C105.625 107.921 108.226 106.086 109.959 103.879C110.99 106.469 113.208 107.921 116.256 107.921C119.304 107.921 121.485 106.512 123.151 104.642V107.145C123.151 114.498 124.978 119.475 130.23 119.475C135.482 119.475 138.085 114.315 138.085 109.063C138.085 107.739 137.902 106.369 137.72 105.455L137.811 105.364C138.176 105.547 138.907 105.684 139.683 105.684C141.669 105.684 143.417 104.907 144.781 103.643C145.643 106.412 147.738 107.922 150.78 107.922C155.027 107.922 157.813 104.725 159 101.528L159.183 101.574L159.137 106.186C159.137 112.945 156.123 115.228 152.698 115.228C150.826 115.228 149.41 114.269 148.451 113.493C148.04 113.173 147.857 113.036 147.675 113.036C147.036 113.036 145.392 115.274 145.392 115.959C145.392 117.055 148.36 119.475 152.471 119.475C159.824 119.475 163.614 114.406 163.614 106.368V88.146C163.614 87.507 163.294 87.096 162.609 87.096L162.607 87.098ZM132.832 79.198C134.385 79.198 135.298 80.157 135.298 81.801C135.298 85.135 131.508 88.423 127.763 89.793C127.991 83.811 129.727 79.198 132.832 79.198Z" fill="#328E6E"/>
<path d="M170.513 101.048C168.411 101.048 166.933 102.469 166.933 104.4C166.933 106.559 168.297 107.923 170.342 107.923C172.615 107.923 173.979 106.502 173.979 104.343C173.979 102.184 172.445 101.047 170.513 101.047V101.048Z" fill="#328E6E"/>
</g>
<defs>
<clipPath id="clip0_77_2240">
<rect width="200" height="200" fill="white"/>
</clipPath>
</defs>
</svg>
